<svg width="180" height="180" viewBox="0 0 180 180" fill="none" xmlns="http://www.w3.org/2000/svg"><defs><linearGradient id="g" x1="18" y1="25" x2="160" y2="158"><stop stop-color="#18EFFF"/><stop offset=".48" stop-color="#3C74FF"/><stop offset="1" stop-color="#B34BFF"/></linearGradient><filter id="s" x="-40%" y="-40%" width="180%" height="180%"><feDropShadow dx="0" dy="10" stdDeviation="9" flood-color="#07143F" flood-opacity=".78"/></filter></defs><g filter="url(#s)"><path d="M38 66 88 40l54 27-50 28-54-29Z" fill="#1659C6" stroke="url(#g)" stroke-width="5"/><path d="M38 66v57l53 31V95L38 66Z" fill="#0D2E78" stroke="#20E8FF" stroke-width="5"/><path d="M142 67v56l-51 31V95l51-28Z" fill="#172567" stroke="#8D5FFF" stroke-width="5"/><path d="m38 66-25-14 48-27 27 15-50 26ZM142 67l25-15-49-27-30 15 54 27Z" fill="#1849A4" stroke="url(#g)" stroke-width="4"/><path d="m56 68 34-18 30 16-31 18-33-16Z" fill="#66DBFF" stroke="#C7FAFF" stroke-width="3"/><path d="M70 117h11v22H70zM88 110h11v36H88zM106 100h11v39h-11z" fill="url(#g)" rx="4"/></g></svg>